<svg id="Fill_out_line" height="512" viewBox="0 0 512 512" width="512" xmlns="http://www.w3.org/2000/svg" data-name="Fill out line"><path d="m440.00005 488h-368.00005a48 48 0 0 1 -48-48v-296h464v296.00005a48 48 0 0 1 -47.99995 47.99995z" fill="#eacf4d"/><path d="m136 24h320v400h-320z" fill="#57c1ff"/><path d="m104 56h320v400h-320z" fill="#65dcff"/><path d="m392 440.00005a48 48 0 0 0 48 48h-368a48 48 0 0 1 -48-48v-296.00005h112l40 40h216z" fill="#f2e368"/><path d="m64 216h288v240h-288z" fill="#3ea7ff"/><path d="m352 368v88h-264l24-48 32-16-16-56 96 96 40-48-8-16 24-24-16-64z" fill="#85b200"/><path d="m144 392-32 16-24 48h-24v-56l64-64z" fill="#c8ea6d"/><path d="m256 368 8 16-40 48-56-56 96-96 16 64z" fill="#c8ea6d"/><path d="m144 248a47.99428 47.99428 0 0 1 -80 35.77v-67.77h67.77a47.76631 47.76631 0 0 1 12.23 32z" fill="#fc7"/><path d="m96 56v64h16v-56h304v384h16v-392a8.00039 8.00039 0 0 0 -8-8h-320a8.00039 8.00039 0 0 0 -8 8z"/><path d="m464 424v-400a8.00039 8.00039 0 0 0 -8-8h-320v16h312v392z"/><path d="m480 440a40 40 0 0 1 -80 0v-256a8.00039 8.00039 0 0 0 -8-8h-212.68652l-37.65625-37.65723a8.00235 8.00235 0 0 0 -5.65723-2.34277h-112a8.00039 8.00039 0 0 0 -8 8v296a56.0629 56.0629 0 0 0 56 56h368a56.0629 56.0629 0 0 0 56-56v-296h-16zm-408 40a40.04584 40.04584 0 0 1 -40-40v-288h100.68652l37.65625 37.65723a8.00235 8.00235 0 0 0 5.65723 2.34277h208v248a55.8339 55.8339 0 0 0 16.8457 40z"/><path d="m352 208h-288a8.00039 8.00039 0 0 0 -8 8v240a8.00039 8.00039 0 0 0 8 8h288a8.00039 8.00039 0 0 0 8-8v-240a8.00039 8.00039 0 0 0 -8-8zm-8 140.68555-74.34277-74.34278a8.003 8.003 0 0 0 -11.31446 0l-90.34277 90.34278-34.34277-34.34278a8.003 8.003 0 0 0 -11.31446 0l-50.34277 50.34278v-82.09473a55.99033 55.99033 0 0 0 74.59082-74.59082h197.40918zm-95.15527 22.89257 5.166 10.332-37.51953 31.2666-37.17675-37.17672 80.35155-80.35254 11.4746 45.89844-20.79785 20.79687a8.00157 8.00157 0 0 0 -1.49802 9.23535zm-120.84766-147.57812a39.99707 39.99707 0 0 1 -55.99707 55.99707v-55.99707zm-55.99707 179.31445 52.04272-52.04345 10.44068 36.54248-26.06152 13.03125a8.004 8.004 0 0 0 -3.57715 3.57715l-21.78907 43.57812h-11.05566zm28.94434 44.68555 17.01855-34.03711 29.61523-14.80762a7.99993 7.99993 0 0 0 4.11426-9.35351l-7.51831-26.314 66.1687 66.16944a8.00007 8.00007 0 0 0 10.77832.48828l48-40a7.99921 7.99921 0 0 0 2.03418-9.72363l-5.42089-10.8418 19.92285-19.92285a8.002 8.002 0 0 0 2.10351-7.59766l-8.99512-35.98022 65.23438 65.23513v76.68555z"/></svg>