<svg id="Layer_1" enable-background="new 0 0 256 256" height="512" viewBox="0 0 256 256" width="512" xmlns="http://www.w3.org/2000/svg"><path d="m193.282 87.158h-170.277c-3.169 0-5.738 2.569-5.738 5.738v14.656c0 3.169 2.569 5.737 5.738 5.737h170.278c3.169 0 5.738-2.569 5.738-5.737v-14.656c-.001-3.169-2.57-5.738-5.739-5.738z" fill="#ef6d7a"/><path d="m193.282 85.658h-125.778c-.829 0-1.5.671-1.5 1.5s.671 1.5 1.5 1.5h125.778c2.337 0 4.238 1.901 4.238 4.238v14.656c0 2.337-1.901 4.238-4.238 4.238h-170.277c-2.337 0-4.238-1.901-4.238-4.238v-14.656c0-2.337 1.901-4.238 4.238-4.238h29.801c.829 0 1.5-.671 1.5-1.5s-.671-1.5-1.5-1.5h-29.801c-3.991 0-7.238 3.247-7.238 7.238v14.656c0 3.991 3.247 7.238 7.238 7.238h170.277c3.991 0 7.238-3.247 7.238-7.238v-14.656c.001-3.991-3.247-7.238-7.238-7.238z" fill="#3a312a"/><path d="m27.414 113.29v119.893c0 3.528 2.86 6.388 6.388 6.388h145.977c3.528 0 6.388-2.86 6.388-6.388v-119.893z" fill="#ef6d7a"/><path d="m186.167 111.79h-158.753c-.829 0-1.5.671-1.5 1.5v24.006c0 .829.671 1.5 1.5 1.5s1.5-.671 1.5-1.5v-22.506h155.753v118.393c0 2.695-2.192 4.888-4.888 4.888h-145.977c-2.695 0-4.888-2.192-4.888-4.888v-81.299c0-.829-.671-1.5-1.5-1.5s-1.5.671-1.5 1.5v81.299c0 4.349 3.538 7.888 7.888 7.888h145.977c4.349 0 7.888-3.539 7.888-7.888v-119.893c0-.829-.671-1.5-1.5-1.5z" fill="#3a312a"/><path d="m78.564 87.158h60.788v26.132h-60.788z" fill="#d6df58"/><path d="m139.352 85.658h-60.787c-.829 0-1.5.671-1.5 1.5v26.132c0 .829.671 1.5 1.5 1.5h60.788c.829 0 1.5-.671 1.5-1.5v-26.132c-.001-.828-.672-1.5-1.501-1.5zm-1.5 26.132h-57.787v-23.132h57.788v23.132z" fill="#3a312a"/><path d="m78.564 113.307v40.277l18.441-13.041 6.248 13.041 7.471-6.792 8.694 6.792 9.509-7.539 10.426 7.539v-40.277z" fill="#d6df58"/><path d="m139.352 111.808h-60.787c-.829 0-1.5.671-1.5 1.5v40.276c0 .561.313 1.074.81 1.332.498.258 1.098.217 1.556-.107l16.989-12.014 5.481 11.438c.205.428.6.733 1.065.824.096.018.192.028.288.028.37 0 .731-.137 1.009-.39l6.536-5.941 7.697 6.014c.546.426 1.313.424 1.855-.007l8.619-6.833 9.505 6.873c.457.33 1.06.376 1.562.121.501-.256.817-.772.817-1.336v-40.276c-.002-.831-.673-1.502-1.502-1.502zm-1.5 38.84-8.046-5.818c-.544-.394-1.284-.378-1.811.04l-8.585 6.806-7.763-6.065c-.272-.212-.598-.318-.923-.318-.362 0-.724.131-1.009.39l-5.981 5.437-5.378-11.223c-.191-.399-.548-.693-.975-.804-.427-.11-.883-.028-1.244.227l-16.074 11.367v-35.878h57.788v35.839z" fill="#3a312a"/><path d="m93.676 214.168h-47.408c-1.951 0-3.532 1.581-3.532 3.532v3.804c0 1.951 1.581 3.532 3.532 3.532h47.408c1.951 0 3.532-1.581 3.532-3.532v-3.804c0-1.95-1.581-3.532-3.532-3.532z" fill="#87796f"/><path d="m93.676 212.669h-47.407c-2.775 0-5.032 2.257-5.032 5.032v3.804c0 2.774 2.257 5.032 5.032 5.032h47.408c2.775 0 5.032-2.257 5.032-5.032v-3.805c-.001-2.774-2.258-5.031-5.033-5.031zm2.032 8.835c0 1.12-.912 2.032-2.032 2.032h-47.407c-1.12 0-2.032-.912-2.032-2.032v-3.804c0-1.12.912-2.032 2.032-2.032h47.408c1.121 0 2.032.912 2.032 2.032v3.804z" fill="#3a312a"/><path d="m47.701 26.106c-.974 11.564-13.025 13.39-13.025 13.39 10.347.487 12.925 14.059 12.925 14.059.221-9.677 13.321-14.202 13.321-14.202-9.812-.587-13.221-13.247-13.221-13.247z" fill="#d6df58"/><path d="m61.012 37.855c-8.604-.514-11.831-12.024-11.863-12.14-.191-.703-.859-1.166-1.583-1.102-.725.066-1.298.642-1.359 1.367-.86 10.215-11.314 11.963-11.755 12.032-.763.115-1.313.79-1.273 1.561.04.77.657 1.384 1.427 1.421 9.028.425 11.499 12.718 11.523 12.842.137.711.759 1.217 1.472 1.217.042 0 .084-.002.126-.005.764-.064 1.357-.693 1.375-1.459.195-8.508 12.191-12.777 12.312-12.819.675-.235 1.092-.915.994-1.623s-.682-1.249-1.396-1.292zm-13.565 10.346c-1.357-3.13-3.709-6.907-7.587-8.876 2.931-1.405 6.409-3.913 8.202-8.273 1.551 3.071 4.199 6.88 8.333 8.722-3.007 1.64-6.921 4.406-8.948 8.427z" fill="#3a312a"/><path d="m26.003 43.087c-.689 8.179-9.212 9.471-9.212 9.471 7.318.344 9.142 9.944 9.142 9.944.156-6.845 9.422-10.046 9.422-10.046-6.942-.415-9.352-9.369-9.352-9.369z" fill="#d6df58"/><path d="m35.444 50.958c-5.766-.345-7.972-8.185-7.994-8.264-.19-.702-.85-1.169-1.582-1.102-.726.065-1.299.643-1.36 1.368-.579 6.871-7.647 8.067-7.942 8.114-.763.115-1.313.79-1.273 1.561.04.77.657 1.384 1.428 1.421 6.035.284 7.723 8.643 7.739 8.725.135.713.759 1.22 1.472 1.22.042 0 .083-.002.125-.005.765-.063 1.358-.693 1.376-1.461.131-5.709 8.332-8.634 8.413-8.662.677-.234 1.094-.913.996-1.622-.099-.708-.684-1.249-1.398-1.293zm-9.585 6.796c-.924-1.886-2.34-3.947-4.447-5.28 1.855-1.041 3.697-2.629 4.87-4.916 1.057 1.874 2.655 3.954 4.941 5.223-1.848 1.101-3.987 2.74-5.364 4.973z" fill="#3a312a"/><path d="m26.003 16.429c-.689 8.179-9.212 9.47-9.212 9.47 7.318.344 9.142 9.944 9.142 9.944.156-6.845 9.422-10.045 9.422-10.045-6.942-.415-9.352-9.369-9.352-9.369z" fill="#d6df58"/><path d="m35.444 24.301c-5.767-.345-7.973-8.186-7.994-8.265-.19-.702-.85-1.162-1.582-1.102-.726.065-1.299.643-1.36 1.368-.579 6.871-7.647 8.067-7.942 8.114-.763.115-1.313.79-1.273 1.561.04.77.657 1.384 1.428 1.421 6.035.284 7.723 8.644 7.739 8.726.135.713.759 1.22 1.473 1.22.041 0 .082-.001.124-.005.765-.063 1.358-.693 1.376-1.461.131-5.709 8.332-8.634 8.413-8.662.676-.234 1.094-.913.996-1.622-.099-.708-.683-1.25-1.398-1.293zm-9.585 6.796c-.924-1.886-2.34-3.948-4.447-5.28 1.855-1.041 3.697-2.629 4.87-4.916 1.057 1.874 2.655 3.954 4.941 5.224-1.848 1.1-3.987 2.739-5.364 4.972z" fill="#3a312a"/><path d="m234.46 69.238-.034-.038c-3.488-3.918-5.177-9.116-4.657-14.336l.004-.042c.944-9.482-5.369-18.165-14.679-20.192l-.029-.006c-5.136-1.118-9.568-4.339-12.217-8.88l-.001-.002c-4.807-8.241-15.033-11.563-23.765-7.72-4.816 2.119-10.3 2.12-15.116 0-8.732-3.843-18.958-.521-23.765 7.72l-.001.002c-2.648 4.541-7.08 7.762-12.217 8.88l-.029.006c-9.311 2.026-15.624 10.71-14.679 20.192l.004.042c.52 5.22-1.169 10.418-4.657 14.336l-.034.038c-6.333 7.112-6.333 17.841 0 24.954l.034.038c3.488 3.918 5.177 9.117 4.657 14.336l-.004.042c-.944 9.482 5.369 18.166 14.679 20.192l.029.006c5.136 1.118 9.568 4.339 12.217 8.88l.001.002c4.807 8.241 15.033 11.563 23.765 7.72 4.816-2.12 10.3-2.12 15.116 0 8.732 3.843 18.958.521 23.765-7.72l.001-.002c2.648-4.541 7.08-7.762 12.217-8.88l.029-.006c9.311-2.026 15.624-10.71 14.679-20.192l-.004-.042c-.52-5.22 1.169-10.419 4.658-14.336l.034-.038c6.332-7.113 6.332-17.842-.001-24.954z" fill="#87796f"/><path d="m235.546 68.202c-3.2-3.594-4.762-8.401-4.281-13.231 1.02-10.242-5.795-19.617-15.882-21.813-4.713-1.026-8.81-4.004-11.241-8.172-5.195-8.906-16.228-12.49-25.665-8.337-4.42 1.945-9.488 1.946-13.908 0-9.436-4.152-20.47-.57-25.666 8.339-2.43 4.167-6.527 7.145-11.269 8.176-10.058 2.189-16.873 11.564-15.849 21.849.477 4.788-1.085 9.596-4.318 13.227-6.84 7.682-6.84 19.267.034 26.987 3.2 3.594 4.762 8.402 4.281 13.232-1.02 10.242 5.795 19.617 15.882 21.813 4.713 1.026 8.81 4.004 11.241 8.172 3.737 6.407 10.494 10.06 17.505 10.059 2.735 0 5.511-.556 8.16-1.722 4.419-1.945 9.488-1.945 13.908 0 9.435 4.152 20.47.568 25.665-8.339 2.43-4.166 6.526-7.144 11.268-8.177 10.058-2.189 16.873-11.563 15.849-21.848-.477-4.789 1.086-9.596 4.289-13.194l.031-.035c6.839-7.682 6.84-19.267-.034-26.986zm-2.206 24.992 1.12.998-1.154-.959c-3.756 4.218-5.59 9.861-5.026 15.524.869 8.726-4.937 16.713-13.534 18.584-5.533 1.205-10.342 4.701-13.195 9.592-4.424 7.588-13.826 10.642-21.864 7.103-5.188-2.283-11.138-2.283-16.325 0-8.038 3.538-17.439.485-21.865-7.104-2.853-4.89-7.661-8.386-13.223-9.597-8.568-1.865-14.374-9.852-13.501-18.619.56-5.621-1.274-11.264-5.064-15.521-5.827-6.544-5.827-16.414.034-22.996 3.756-4.219 5.59-9.862 5.026-15.525-.869-8.726 4.937-16.712 13.534-18.583 5.532-1.205 10.341-4.7 13.195-9.592 3.183-5.458 8.939-8.57 14.913-8.57 2.33 0 4.695.474 6.951 1.467 5.186 2.283 11.137 2.282 16.325 0 8.038-3.538 17.439-.485 21.865 7.104 2.853 4.89 7.661 8.386 13.222 9.596 8.568 1.865 14.375 9.852 13.501 18.62-.56 5.621 1.274 11.264 5.064 15.52 5.828 6.544 5.828 16.413.001 22.958z" fill="#3a312a"/><ellipse cx="171.524" cy="81.715" fill="#f8e4c8" rx="50.547" ry="50.547" transform="matrix(.882 -.472 .472 .882 -18.262 90.604)"/><g fill="#3a312a"><path d="m171.524 29.667c-28.699 0-52.047 23.348-52.047 52.047s23.348 52.047 52.047 52.047 52.047-23.348 52.047-52.047c0-28.698-23.348-52.047-52.047-52.047zm0 101.095c-27.045 0-49.047-22.002-49.047-49.047s22.002-49.047 49.047-49.047c27.044 0 49.047 22.002 49.047 49.047 0 27.044-22.002 49.047-49.047 49.047z"/><path d="m144.049 69.695v13.578l-9.241-13.578h-7.081v24.541h7.132v-13.475l9.19 13.475h7.148v-24.541z"/><path d="m165.532 88.679v-4.838h11.801v-5.006h-11.801v-3.9h12.722v-5.24h-20.322v24.541h20.691v-5.557z"/><path d="m209.062 69.695-2.595 13.72-3.805-13.72h-7.177l-3.795 13.738-2.593-13.738h-7.203l5.46 24.541h7.436l4.288-15.451 4.304 15.451h7.436l5.409-24.541z"/></g><path d="m184.44 148.36c-2.01-.22-4.02-.72-5.96-1.58-4.13-1.81-8.84-1.93-13.04-.35v86.75c0 2.7-2.19 4.89-4.89 4.89h19.23c2.69 0 4.89-2.19 4.89-4.89v-84.79c-.08-.01-.15-.02-.23-.03z" fill="#d34e5c"/><path d="m178.48 146.78c-4.13-1.81-8.84-1.93-13.04-.35v86.75c0 2.7-2.19 4.89-4.89 4.89h19c2.7 0 4.89-2.19 4.89-4.89v-84.82c-2.01-.22-4.02-.72-5.96-1.58z" fill="#d34e5c"/></svg>