<svg height="512pt" viewBox="-7 0 512 512" width="512pt" xmlns="http://www.w3.org/2000/svg"><g fill-rule="evenodd"><path d="m123.8125 82h160.1875c8.800781 0 16-7.199219 16-16v-16c0-8.800781-7.199219-16-16-16h-60c0-13.253906-10.746094-24-24-24s-24 10.746094-24 24h-60c-8.800781 0-16 7.199219-16 16v16c0 8.800781 7.199219 16 16 16zm0 0" fill="#b5bbc9"/><path d="m276.1875 82h-152.375v24.761719c0 8.382812 6.855469 15.238281 15.234375 15.238281h121.902344c8.382812 0 15.238281-6.855469 15.238281-15.238281zm0 0" fill="#e1e3e8"/><path d="m260.949219 122h-121.902344c-8.378906 0-15.234375-6.855469-15.234375-15.238281v-16.761719h-73.8125v372h282.679688l-75.054688-43.332031v-53.332031l-46.1875-26.667969 46.183594-26.667969-46.183594-26.664062 92.375-53.335938 46.1875 26.667969v-168.667969h-73.8125v16.761719c0 8.378906-6.859375 15.238281-15.238281 15.238281zm0 0" fill="#e1e3e8"/><path d="m50 90h73.8125v-8h-7.8125c-8.800781 0-16-7.199219-16-16v-16h-74c-8.800781 0-16 7.199219-16 16v420c0 8.800781 7.199219 16 16 16h348c8.800781 0 16-7.199219 16-16v-37.09375l-40 23.09375-17.320312-10h-282.679688zm0 0" fill="#8380e2"/><path d="m300 66c0 8.800781-7.199219 16-16 16h-7.8125v8h73.8125v168.667969l40-23.09375v-169.574219c0-8.800781-7.199219-16-16-16h-74zm0 0" fill="#8380e2"/><path d="m390 235.574219-40 23.09375 92.375 53.332031 46.1875-26.664062-92.375-53.335938zm0 0" fill="#dca98a"/><path d="m442.375 312-92.375-53.332031v106.667969zm0 0" fill="#c58965"/><path d="m442.375 312-92.375 53.335938 46.1875 26.664062 46.1875-26.664062 46.1875-26.667969zm0 0" fill="#dca98a"/><path d="m396.1875 392-46.1875-26.664062-46.1875 26.664062-46.1875-26.664062v53.332031l75.054688 43.332031 17.320312 10 40-23.09375 52.375-30.238281v-53.332031zm0 0" fill="#dca98a"/><path d="m350 365.335938v-106.667969l-92.375 53.332031zm0 0" fill="#c58965"/><path d="m350 365.335938-92.375-53.335938-46.1875 26.667969 46.1875 26.667969 46.1875 26.664062zm0 0" fill="#dca98a"/><path d="m257.625 312 92.375-53.332031-46.1875-26.667969-92.375 53.335938zm0 0" fill="#dca98a"/></g><path d="m140.15625 174.929688c-3.90625-3.902344-10.234375-3.902344-14.140625 0l-21.652344 21.652343-7.292969-7.289062c-3.90625-3.90625-10.234374-3.90625-14.140624 0s-3.90625 10.238281 0 14.140625l14.359374 14.363281c1.953126 1.953125 4.515626 2.929687 7.074219 2.929687 2.558594 0 5.117188-.976562 7.070313-2.929687l28.722656-28.722656c3.90625-3.90625 3.90625-10.238281 0-14.144531zm0 0"/><path d="m126.015625 366.203125-21.652344 21.652344-7.292969-7.289063c-3.90625-3.90625-10.234374-3.90625-14.140624 0-3.90625 3.902344-3.90625 10.234375 0 14.140625l14.359374 14.363281c1.953126 1.953126 4.515626 2.929688 7.074219 2.929688 2.558594 0 5.117188-.976562 7.070313-2.929688l28.722656-28.726562c3.90625-3.90625 3.90625-10.234375 0-14.140625s-10.234375-3.90625-14.140625 0zm0 0"/><path d="m140.15625 270.566406c-3.90625-3.90625-10.234375-3.90625-14.140625 0l-21.652344 21.652344-7.292969-7.289062c-3.90625-3.90625-10.234374-3.90625-14.140624 0-3.90625 3.902343-3.90625 10.234374 0 14.140624l14.359374 14.363282c1.953126 1.953125 4.515626 2.929687 7.074219 2.929687 2.558594 0 5.117188-.976562 7.070313-2.929687l28.722656-28.726563c3.90625-3.902343 3.90625-10.234375 0-14.140625zm0 0"/><path d="m310 206.363281c5.519531 0 10-4.476562 10-10 0-5.523437-4.480469-10-10-10h-110c-5.523438 0-10 4.476563-10 10 0 5.523438 4.476562 10 10 10zm0 0"/><path d="m493.5625 330.007812-31.1875-18.007812 31.1875-18.003906c3.09375-1.789063 5-5.089844 5-8.660156 0-3.574219-1.90625-6.875-5-8.660157l-92.375-53.335937c-.386719-.21875-.785156-.414063-1.1875-.582032v-156.757812c0-14.335938-11.664062-26-26-26h-66.003906c-3.925782-9.386719-13.203125-16-23.996094-16h-51.5c-4.28125-13.882812-17.230469-24-32.5-24s-28.222656 10.117188-32.5 24h-51.5c-10.796875 0-20.070312 6.613281-24 16h-66c-14.335938 0-26 11.664062-26 26v24c0 5.523438 4.476562 10 10 10s10-4.476562 10-10v-24c0-3.253906 2.746094-6 6-6h64v6c0 5.152344 1.511719 9.953125 4.109375 14h-44.109375c-5.523438 0-10 4.476562-10 10v372c0 5.523438 4.476562 10 10 10h117.625c5.523438 0 10-4.476562 10-10s-4.476562-10-10-10h-107.625v-352h53.8125v6.761719c0 13.917969 11.320312 25.238281 25.238281 25.238281h121.898438c13.917969 0 25.238281-11.320312 25.238281-25.238281v-6.761719h53.8125v141.347656l-31.1875-18.007812c-3.09375-1.785156-6.90625-1.785156-10 0l-92.375 53.335937c-3.09375 1.785157-5 5.085938-5 8.660157 0 3.570312 1.90625 6.871093 5 8.660156l31.1875 18.003906-31.1875 18.007812c-3.09375 1.785157-5 5.085938-5 8.660157 0 3.570312 1.90625 6.871093 5 8.660156l41.1875 23.777344v47.5625c0 3.570312 1.90625 6.871093 5 8.65625l42.734375 24.675781h-37.734375c-5.523438 0-10 4.476562-10 10s4.476562 10 10 10h72.375l15 8.660156c1.546875.894532 3.273438 1.339844 5 1.339844s3.453125-.445312 5-1.339844l25-14.433594v19.773438c0 3.25-2.746094 6-6 6h-348c-3.253906 0-6-2.75-6-6v-306c0-5.523438-4.476562-10-10-10s-10 4.476562-10 10v306c0 14.335938 11.664062 26 26 26h348c14.335938 0 26-11.664062 26-26v-31.320312l47.375-27.351563c3.09375-1.785156 5-5.089844 5-8.660156v-47.5625l41.1875-23.777344c3.09375-1.785156 5-5.085937 5-8.660156s-1.90625-6.875-5-8.660157zm-25-44.671874-26.1875 15.117187-72.375-41.785156 26.1875-15.121094zm-108.5625-9.347657 62.375 36.011719-62.375 36.015625zm-20 72.027344-62.375-36.015625 62.375-36.011719zm-224-304.015625h60c5.523438 0 10-4.476562 10-10 0-7.71875 6.28125-14 14-14s14 6.28125 14 14c0 5.523438 4.480469 10 10 10h60c3.25 0 6 2.746094 6 6v16c0 3.25-2.75 6-6 6h-168c-3.253906 0-6-2.75-6-6v-16c0-3.253906 2.746094-6 6-6zm144.949219 68h-121.902344c-2.839844 0-5.234375-2.398438-5.234375-5.238281v-14.761719h132.375v14.761719c0 2.839843-2.398438 5.238281-5.238281 5.238281zm44.941406-32c2.597656-4.046875 4.109375-8.847656 4.109375-14v-6h64c3.25 0 6 2.746094 6 6v163.800781l-20 11.546875v-151.347656c0-5.523438-4.480469-10-10-10zm-74.453125 205.335938 72.375-41.789063 26.1875 15.121094-72.375 41.785156zm26.1875 38.210937 72.375 41.789063-26.1875 15.117187-72.375-41.785156zm10 59.109375 31.1875 18.003906c1.546875.894532 3.273438 1.339844 5 1.339844s3.453125-.445312 5-1.339844l31.1875-18.003906v72.023438l-72.375-41.785157zm164.75 30.238281-72.375 41.785157v-72.023438l31.1875 18.003906c1.546875.894532 3.273438 1.339844 5 1.339844s3.453125-.445312 5-1.339844l31.1875-18.007812zm-36.1875-32.441406-26.1875-15.117187 72.375-41.789063 26.1875 15.121094zm0 0"/><path d="m10 145.003906c5.523438 0 10-4.476562 10-10v-.007812c0-5.523438-4.476562-9.996094-10-9.996094s-10 4.480469-10 10.003906c0 5.523438 4.476562 10 10 10zm0 0"/><path d="m222.625 462c0-5.523438-4.476562-10-10-10h-.003906c-5.523438 0-9.996094 4.476562-9.996094 10s4.480469 10 10 10c5.523438 0 10-4.476562 10-10zm0 0"/></svg>