<svg id="Capa_1" enable-background="new 0 0 512 512" height="512" viewBox="0 0 512 512" width="512" xmlns="http://www.w3.org/2000/svg"><g><g><g><path d="m77.175 337.317h357.65c37.112 0 68.354-28.803 69.628-65.584.031-.909.047-1.821.047-2.737 0-43.314-35.408-78.427-79.085-78.427-.03 0-.059.002-.089.002.051-1.158.089-2.319.089-3.489 0-43.314-35.408-78.427-79.085-78.427-13.607 0-26.41 3.41-37.592 9.412-18.34-39.115-57.412-66.737-103.219-68.963-68.102-3.311-126.002 50.965-126.372 118.579-.043 7.895.696 15.609 2.128 23.081-41.198 2.711-73.775 36.689-73.775 78.231 0 .916.016 1.829.047 2.737 1.274 36.782 32.516 65.585 69.628 65.585z" fill="#ddebfd"/></g></g><g><g><path d="m425.415 190.568c-.03 0-.059.003-.089.003.051-1.158.089-2.319.089-3.489 0-43.314-35.408-78.426-79.085-78.426-13.607 0-26.41 3.41-37.592 9.412-18.34-39.115-57.412-66.737-103.219-68.963-37.53-1.825-71.957 13.845-95.37 39.593 19.229-10.922 41.68-16.745 65.37-15.593 37.573 1.826 70.614 20.739 91.4 49.065 7.393 10.075 19.984 15.041 32.189 12.352 5.544-1.221 11.307-1.866 17.222-1.866 29.487 0 55.204 37.333 68.803 61.592 6.366 11.356 17.126 19.546 29.752 22.716 34.262 8.602 59.614 39.381 59.614 76.032 0 .916-.016 1.829-.047 2.737-.465 13.42-4.933 25.769-12.206 36.053 23.949-10.063 41.265-32.871 42.206-60.053.031-.908.047-1.821.047-2.737.001-43.315-35.406-78.428-79.084-78.428z" fill="#bed9fd"/></g></g><g><g><path d="m244.725 275.367-54.814-75.963c-2.282-3.162-6.99-3.162-9.272 0l-54.813 75.963c-2.728 3.781-.027 9.062 4.636 9.062h14.377c3.157 0 5.717 2.559 5.717 5.717v80.645c0 2.346 1.902 4.247 4.247 4.247h60.945c2.346 0 4.247-1.902 4.247-4.247v-80.645c0-3.157 2.559-5.717 5.717-5.717h14.377c4.662-.001 7.364-5.282 4.636-9.062z" fill="#95d6a4"/></g></g><g><g><path d="m256.381 384.703 54.813 75.963c2.282 3.162 6.99 3.162 9.272 0l54.814-75.963c2.728-3.781.026-9.062-4.636-9.062h-14.377c-3.157 0-5.717-2.559-5.717-5.717v-80.645c0-2.346-1.901-4.247-4.247-4.247h-60.945c-2.346 0-4.247 1.902-4.247 4.247v80.645c0 3.157-2.559 5.717-5.717 5.717h-14.377c-4.663 0-7.365 5.281-4.636 9.062z" fill="#ff8086"/></g></g><g><g><path d="m244.725 275.367-54.813-75.963c-2.282-3.162-6.99-3.162-9.272 0l-10.364 14.363 38.884 53.887c5.05 6.999.049 16.775-8.582 16.775-5.845 0-10.582 4.738-10.582 10.583v75.779c0 2.346-1.902 4.247-4.247 4.247h30c2.346 0 4.247-1.902 4.247-4.247v-80.645c0-3.157 2.559-5.717 5.717-5.717h14.377c4.661-.001 7.363-5.282 4.635-9.062z" fill="#78c2a4"/></g></g><g><g><path d="m370.643 375.641h-14.377c-3.157 0-5.717-2.559-5.717-5.716v-80.645c0-2.346-1.902-4.247-4.247-4.247h-30c2.346 0 4.247 1.902 4.247 4.247v75.779c0 5.845 4.738 10.582 10.582 10.582 8.631 0 13.632 9.776 8.582 16.775l-38.884 53.887 10.364 14.363c2.282 3.162 6.99 3.162 9.272 0l54.814-75.963c2.728-3.781.027-9.062-4.636-9.062z" fill="#e5646e"/></g></g><path d="m432.836 183.381c-1.961-45.669-40.013-82.226-86.506-82.226-11.774 0-23.46 2.396-34.211 6.978-21.206-39.063-61.252-64.333-106.234-66.52-36.743-1.783-72.588 12.397-98.354 38.913-2.887 2.971-2.818 7.719.152 10.606 2.971 2.887 7.72 2.817 10.605-.152 22.767-23.429 54.434-35.962 86.868-34.384 41.96 2.04 79.049 26.815 96.792 64.656.875 1.865 2.478 3.288 4.433 3.936 1.954.647 4.09.462 5.905-.512 10.384-5.574 22.156-8.52 34.044-8.52 39.472 0 71.585 31.817 71.585 70.926 0 .91-.025 1.912-.081 3.154-.092 2.045.657 4.039 2.072 5.519 1.414 1.479 3.373 2.316 5.42 2.316.053 0 .118-.001.183-.003 39.43.05 71.491 31.849 71.491 70.927 0 .83-.015 1.657-.042 2.478-.545 15.719-7.293 30.41-19.004 41.368-11.698 10.947-27.016 16.976-43.129 16.976h-76.775v-40.538c0-6.478-5.27-11.747-11.747-11.747h-60.945c-6.477 0-11.747 5.27-11.747 11.747v40.538h-46.115v-37.889h12.594c4.986 0 9.494-2.757 11.766-7.196 2.271-4.44 1.87-9.71-1.048-13.753 0 0 0 0 0-.001l-54.814-75.963c-2.478-3.434-6.484-5.483-10.719-5.482-4.233 0-8.239 2.05-10.716 5.483l-54.813 75.962c-2.918 4.043-3.32 9.314-1.049 13.753 2.271 4.44 6.779 7.198 11.767 7.198h12.594v37.889h-65.883c-16.113 0-31.43-6.029-43.129-16.976-11.71-10.958-18.459-25.649-19.003-41.367-.028-.823-.043-1.649-.043-2.479 0-37.208 29.328-68.284 66.769-70.747 2.146-.141 4.128-1.197 5.442-2.898 1.315-1.702 1.836-3.886 1.432-5.998-1.363-7.11-2.034-14.386-1.994-21.627.106-19.45 5.407-38.61 15.33-55.411 2.106-3.566.923-8.165-2.644-10.272-3.564-2.105-8.165-.922-10.272 2.644-11.271 19.084-17.293 40.854-17.414 62.956-.03 5.524.304 11.067.996 16.559-41.34 6.659-72.645 42.447-72.645 84.793 0 1.003.019 2.001.053 2.997.682 19.715 9.114 38.113 23.744 51.802 14.488 13.557 33.444 21.023 53.378 21.023h65.881v25.973c0 6.478 5.27 11.747 11.747 11.747h60.945c6.478 0 11.747-5.27 11.747-11.747v-25.973h46.115v23.324h-12.594c-4.987 0-9.496 2.758-11.767 7.197s-1.869 9.709 1.049 13.753l54.814 75.962c2.477 3.433 6.482 5.483 10.716 5.483h.002c4.232 0 8.239-2.049 10.718-5.483l19.194-26.601c2.424-3.359 1.666-8.047-1.693-10.471-3.358-2.423-8.047-1.666-10.471 1.693l-17.748 24.596-51.327-71.131h10.891c7.288 0 13.217-5.929 13.217-13.217v-77.392h54.439v77.392c0 7.288 5.929 13.217 13.217 13.217h10.891l-15.668 21.713c-2.424 3.359-1.666 8.047 1.693 10.471 3.358 2.423 8.047 1.666 10.471-1.693l17.708-24.541c2.918-4.044 3.319-9.314 1.048-13.753-2.272-4.439-6.779-7.196-11.766-7.196h-12.594v-23.324h76.775c19.934 0 38.89-7.466 53.378-21.022 14.63-13.69 23.063-32.087 23.745-51.804.034-.994.052-1.993.052-2.996 0-44.898-34.883-81.865-79.164-85.613zm-220.341 106.764v77.392h-54.439v-77.392c0-7.288-5.929-13.217-13.217-13.217h-10.891l51.327-71.131 51.327 71.131h-10.891c-7.287 0-13.216 5.929-13.216 13.217z"/></g></svg>